<svg width="34" height="40" viewBox="0 0 34 40" fill="none" xmlns="http://www.w3.org/2000/svg">
<path d="M30.8743 11.7761H3.12567C2.7152 11.7761 2.30875 11.8674 1.92953 12.0447C1.5503 12.222 1.20573 12.4818 0.915488 12.8094C0.625242 13.137 0.395007 13.526 0.237927 13.954C0.0808478 14.382 0 14.8408 0 15.3041C0 15.7674 0.0808478 16.2262 0.237927 16.6542C0.395007 17.0822 0.625242 17.4712 0.915488 17.7988C1.20573 18.1264 1.5503 18.3862 1.92953 18.5635C2.30875 18.7408 2.7152 18.8321 3.12567 18.8321C3.31529 18.8321 3.49763 18.805 3.67787 18.7698L3.6612 18.8321L4.32489 35.3007C4.42803 37.8856 6.38887 40 8.68103 40H25.3513C27.6434 40 29.6043 37.8856 29.7085 35.3007L30.3711 18.8321L30.3555 18.7733C30.5253 18.805 30.6962 18.8321 30.8743 18.8321C31.2848 18.8321 31.6913 18.7408 32.0705 18.5635C32.4497 18.3862 32.7943 18.1264 33.0845 17.7988C33.3748 17.4712 33.605 17.0822 33.7621 16.6542C33.9192 16.2262 34 15.7674 34 15.3041C34 14.8408 33.9192 14.382 33.7621 13.954C33.605 13.526 33.3748 13.137 33.0845 12.8094C32.7943 12.4818 32.4497 12.222 32.0705 12.0447C31.6913 11.8674 31.2848 11.7761 30.8743 11.7761Z" fill="#E1E8ED"/>
<path d="M28.1309 18.832V38.811C29.0301 37.9478 29.6354 36.6989 29.6854 35.2995L30.3939 18.832H28.1309ZM21.8796 18.832H25.0053V39.9999H21.8796V18.832ZM15.6283 39.9999V18.832H18.7539V39.9999H15.6283ZM9.37692 18.832H12.5026V39.9999H9.37692V18.832ZM3.63818 18.832L4.34667 35.2995C4.40293 36.8777 5.15518 38.2724 6.25125 39.1262V18.832H3.63818Z" fill="#DA2F47"/>
<path opacity="0.6" d="M3.63818 18.832L3.73925 21.184H30.2918L30.3939 18.832H3.63818Z" fill="#99AAB5"/>
<path d="M2.42969 14.1284V15.3044C2.42969 15.6163 2.53946 15.9154 2.73485 16.136C2.93024 16.3565 3.19525 16.4804 3.47158 16.4804H30.5607C30.8371 16.4804 31.1021 16.3565 31.2975 16.136C31.4928 15.9154 31.6026 15.6163 31.6026 15.3044V14.1284H2.42969Z" fill="white"/>
</svg>
