<svg width="32" height="28" viewBox="0 0 32 28" fill="none" xmlns="http://www.w3.org/2000/svg">
<path d="M30 0H2C1.46957 0 0.960859 0.210714 0.585786 0.585786C0.210714 0.960859 0 1.46957 0 2V26C0 26.5304 0.210714 27.0391 0.585786 27.4142C0.960859 27.7893 1.46957 28 2 28H30C30.5304 28 31.0391 27.7893 31.4142 27.4142C31.7893 27.0391 32 26.5304 32 26V2C32 1.46957 31.7893 0.960859 31.4142 0.585786C31.0391 0.210714 30.5304 0 30 0ZM6.92 4C7.51334 4 8.09336 4.17595 8.58671 4.50559C9.08006 4.83524 9.46458 5.30377 9.69164 5.85195C9.9187 6.40013 9.97811 7.00333 9.86236 7.58527C9.7466 8.16721 9.46088 8.70176 9.04132 9.12132C8.62176 9.54088 8.08721 9.8266 7.50527 9.94236C6.92333 10.0581 6.32013 9.9987 5.77195 9.77164C5.22377 9.54458 4.75524 9.16006 4.42559 8.66671C4.09595 8.17336 3.92 7.59334 3.92 7C3.92 6.20435 4.23607 5.44129 4.79868 4.87868C5.36129 4.31607 6.12435 4 6.92 4ZM4 23V18.9L10 12.82C10.1874 12.6337 10.4408 12.5292 10.705 12.5292C10.9692 12.5292 11.2226 12.6337 11.41 12.82L14 15.35L6.32 23H4ZM28 23H9.15L15.38 16.77L20.78 11.37C20.9674 11.1837 21.2208 11.0792 21.485 11.0792C21.7492 11.0792 22.0026 11.1837 22.19 11.37L28 17.18V23Z" fill="black"/>
</svg>
