<svg width="109" height="109" viewBox="0 0 109 109" fill="none" xmlns="http://www.w3.org/2000/svg">
<path d="M54.5 81.75C56.0442 81.75 57.3394 81.2268 58.3858 80.1804C59.4322 79.134 59.9536 77.8405 59.95 76.3C59.95 74.7558 59.4268 73.4605 58.3804 72.4141C57.334 71.3677 56.0405 70.8464 54.5 70.85C52.9558 70.85 51.6605 71.3732 50.6141 72.4196C49.5677 73.466 49.0464 74.7595 49.05 76.3C49.05 77.8442 49.5732 79.1394 50.6196 80.1858C51.666 81.2322 52.9595 81.7536 54.5 81.75ZM49.05 59.95H59.95V27.25H49.05V59.95ZM54.5 109C46.9608 109 39.8758 107.568 33.245 104.705C26.6142 101.842 20.8462 97.9601 15.9412 93.0587C11.0362 88.1537 7.15403 82.3858 4.2946 75.755C1.43517 69.1242 0.00363333 62.0392 0 54.5C0 46.9608 1.43153 39.8758 4.2946 33.245C7.15767 26.6142 11.0399 20.8462 15.9412 15.9412C20.8462 11.0362 26.6142 7.15403 33.245 4.2946C39.8758 1.43517 46.9608 0.00363333 54.5 0C62.0392 0 69.1242 1.43153 75.755 4.2946C82.3858 7.15767 88.1537 11.0399 93.0587 15.9412C97.9637 20.8462 101.848 26.6142 104.711 33.245C107.574 39.8758 109.004 46.9608 109 54.5C109 62.0392 107.568 69.1242 104.705 75.755C101.842 82.3858 97.9601 88.1537 93.0587 93.0587C88.1537 97.9637 82.3858 101.848 75.755 104.711C69.1242 107.574 62.0392 109.004 54.5 109ZM54.5 98.1C66.6717 98.1 76.9812 93.8762 85.4287 85.4287C93.8762 76.9812 98.1 66.6717 98.1 54.5C98.1 42.3283 93.8762 32.0187 85.4287 23.5712C76.9812 15.1237 66.6717 10.9 54.5 10.9C42.3283 10.9 32.0187 15.1237 23.5712 23.5712C15.1237 32.0187 10.9 42.3283 10.9 54.5C10.9 66.6717 15.1237 76.9812 23.5712 85.4287C32.0187 93.8762 42.3283 98.1 54.5 98.1Z" fill="white"/>
</svg>
