<svg width="34" height="40" viewBox="0 0 34 40" fill="none" xmlns="http://www.w3.org/2000/svg">
<path d="M30.8743 11.7761H3.12567C2.7152 11.7761 2.30875 11.8674 1.92953 12.0447C1.5503 12.222 1.20573 12.4818 0.915488 12.8094C0.625242 13.137 0.395007 13.526 0.237927 13.954C0.0808478 14.382 0 14.8408 0 15.3041C0 15.7674 0.0808478 16.2262 0.237927 16.6542C0.395007 17.0822 0.625242 17.4712 0.915488 17.7988C1.20573 18.1264 1.5503 18.3862 1.92953 18.5635C2.30875 18.7408 2.7152 18.8321 3.12567 18.8321C3.31529 18.8321 3.49763 18.805 3.67787 18.7698L3.6612 18.8321L4.32489 35.3007C4.42803 37.8856 6.38887 40 8.68103 40H25.3513C27.6434 40 29.6043 37.8856 29.7085 35.3007L30.3711 18.8321L30.3555 18.7733C30.5253 18.805 30.6962 18.8321 30.8743 18.8321C31.2848 18.8321 31.6913 18.7408 32.0705 18.5635C32.4497 18.3862 32.7943 18.1264 33.0845 17.7988C33.3748 17.4712 33.605 17.0822 33.7621 16.6542C33.9192 16.2262 34 15.7674 34 15.3041C34 14.8408 33.9192 14.382 33.7621 13.954C33.605 13.526 33.3748 13.137 33.0845 12.8094C32.7943 12.4818 32.4497 12.222 32.0705 12.0447C31.6913 11.8674 31.2848 11.7761 30.8743 11.7761Z" fill="#E1E8ED"/>
<path d="M28.1309 18.832V38.811C29.0301 37.9478 29.6354 36.6989 29.6854 35.2995L30.3939 18.832H28.1309ZM21.8796 18.832H25.0053V39.9999H21.8796V18.832ZM15.6283 39.9999V18.832H18.7539V39.9999H15.6283ZM9.37692 18.832H12.5026V39.9999H9.37692V18.832ZM3.63818 18.832L4.34667 35.2995C4.40293 36.8777 5.15518 38.2724 6.25125 39.1262V18.832H3.63818Z" fill="#DA2F47"/>
<path opacity="0.6" d="M3.63818 18.832L3.73925 21.184H30.2918L30.3939 18.832H3.63818Z" fill="#99AAB5"/>
<path d="M30.4869 11.8588C30.5317 11.6424 30.5608 11.4201 30.5608 11.1884C30.5608 10.3958 30.2795 9.67847 29.8274 9.15045C30.267 8.83763 30.5608 8.28962 30.5608 7.66046C30.5604 7.37233 30.4975 7.08869 30.3776 6.83434C30.2576 6.58 30.0843 6.36269 29.8727 6.20142C29.6612 6.04015 29.4179 5.93982 29.164 5.90921C28.9102 5.8786 28.6536 5.91864 28.4166 6.02583C28.3456 5.72951 28.207 5.45937 28.0147 5.24231C27.8224 5.02525 27.5831 4.86885 27.3206 4.78868C27.4155 4.52122 27.451 4.23158 27.4239 3.94508C27.3968 3.65857 27.3079 3.38393 27.165 3.14515C27.0221 2.90638 26.8296 2.71074 26.6043 2.57535C26.3789 2.43996 26.1276 2.36894 25.8723 2.36848C25.6733 2.36848 25.4848 2.41435 25.3097 2.49079C25.2569 2.10063 25.1349 1.72651 24.9509 1.39083C24.767 1.05515 24.525 0.764798 24.2393 0.537163C23.9536 0.309528 23.6302 0.149285 23.2884 0.0660258C22.9466 -0.0172335 22.5934 -0.0217977 22.25 0.0526063C21.9066 0.12701 21.58 0.278853 21.2898 0.499046C20.9996 0.719239 20.7517 1.00326 20.5611 1.3341C20.3704 1.66494 20.2408 2.0358 20.18 2.4245C20.1193 2.81319 20.1287 3.21171 20.2076 3.59622C19.5408 3.72911 18.9677 4.14776 18.5791 4.73576C18.3385 4.36713 18.0246 4.06733 17.6627 3.86044C17.3008 3.65355 16.901 3.54533 16.4953 3.54448C15.8045 3.54448 15.142 3.85423 14.6535 4.40558C14.165 4.95694 13.8906 5.70473 13.8906 6.48447L13.8916 6.49858C13.5713 6.22164 13.1975 6.03388 12.8008 5.95056C12.6911 5.27535 12.3753 4.66486 11.9082 4.22527C11.441 3.78567 10.8522 3.54478 10.244 3.54448C9.63428 3.54496 9.0441 3.78722 8.57657 4.22895C8.10904 4.67068 7.79388 5.28379 7.68615 5.96115C7.49866 5.92285 7.3088 5.90123 7.11832 5.89647C6.15118 5.89647 5.22365 6.33012 4.53977 7.10201C3.8559 7.87391 3.47171 8.92082 3.47171 10.0125C3.47171 10.6534 3.61236 11.2519 3.84366 11.7929C3.43678 11.824 3.05692 12.0339 2.78567 12.3776C2.51441 12.7213 2.37339 13.1713 2.3929 13.6311C2.41241 14.0909 2.59088 14.5237 2.89 14.8365C3.18911 15.1494 3.58501 15.3174 3.99265 15.3044H30.0399C30.4157 15.3072 30.7797 15.1566 31.0648 14.8803C31.3499 14.604 31.5369 14.2207 31.5913 13.8011C31.6458 13.3814 31.564 12.9537 31.361 12.5967C31.158 12.2398 30.8476 11.9777 30.4869 11.8588Z" fill="#FFD983"/>
<path d="M27.435 9.42425C28.0104 9.42425 28.4768 8.89774 28.4768 8.24826C28.4768 7.59878 28.0104 7.07227 27.435 7.07227C26.8595 7.07227 26.3931 7.59878 26.3931 8.24826C26.3931 8.89774 26.8595 9.42425 27.435 9.42425Z" fill="#FFAC33"/>
<path d="M23.7884 7.07217C24.6516 7.07217 25.3513 6.28241 25.3513 5.30818C25.3513 4.33396 24.6516 3.54419 23.7884 3.54419C22.9253 3.54419 22.2256 4.33396 22.2256 5.30818C22.2256 6.28241 22.9253 7.07217 23.7884 7.07217Z" fill="#FFAC33"/>
<path d="M10.7648 8.24847C11.3402 8.24847 11.8067 7.72196 11.8067 7.07248C11.8067 6.423 11.3402 5.89648 10.7648 5.89648C10.1894 5.89648 9.7229 6.423 9.7229 7.07248C9.7229 7.72196 10.1894 8.24847 10.7648 8.24847Z" fill="#FFAC33"/>
<path d="M30.5607 13.5407C30.5607 13.1237 30.4296 12.7202 30.1907 12.4021C29.9517 12.084 29.6205 11.872 29.256 11.8038C28.8915 11.7356 28.5174 11.8157 28.2003 12.0297C27.8832 12.2438 27.6438 12.578 27.5246 12.9727C27.4944 12.9704 27.4673 12.9527 27.435 12.9527C27.1587 12.9527 26.8937 13.0766 26.6983 13.2972C26.5029 13.5177 26.3931 13.8168 26.3931 14.1287H30.4648C30.5232 13.9441 30.5607 13.7477 30.5607 13.5407ZM8.16004 12.9527C8.36634 12.9527 8.56117 12.9998 8.74142 13.0821C8.83859 12.6685 9.06596 12.3091 9.38097 12.0711C9.69599 11.8331 10.077 11.7328 10.4528 11.789C10.8286 11.8453 11.1734 12.0541 11.4226 12.3766C11.6718 12.699 11.8083 13.1129 11.8067 13.5407C11.8067 13.7477 11.7692 13.9441 11.7108 14.1287H16.0701C16.0084 13.9404 15.9759 13.7415 15.9742 13.5407C15.9742 13.0729 16.1389 12.6242 16.432 12.2934C16.7251 11.9626 17.1226 11.7768 17.5371 11.7768C17.784 11.7768 18.0153 11.8473 18.2226 11.9626C18.1157 11.7224 18.0594 11.4576 18.058 11.1888C18.0571 10.9282 18.1074 10.6706 18.2052 10.4346C18.303 10.1986 18.4459 9.98993 18.6237 9.82367C18.8014 9.65741 19.0096 9.53767 19.2332 9.47305C19.4569 9.40843 19.6904 9.40053 19.9171 9.44993C20.1438 9.49933 20.3579 9.60479 20.5442 9.75875C20.7304 9.9127 20.8842 10.1113 20.9943 10.3403C21.1045 10.5693 21.1683 10.823 21.1812 11.0832C21.1941 11.3433 21.1558 11.6035 21.0691 11.845C21.7338 12.0472 22.2256 12.7258 22.2256 13.5407C22.2256 13.7477 22.1881 13.9441 22.1297 14.1287H25.222L24.6323 13.5407C25.0699 13.1092 25.3512 12.4835 25.3512 11.7768C25.3512 11.153 25.1317 10.5547 24.7409 10.1136C24.3501 9.67256 23.8201 9.42476 23.2675 9.42476C22.8884 9.42653 22.5171 9.54616 22.1943 9.7705C22.2099 9.65643 22.2256 9.54354 22.2256 9.42476C22.2265 8.88764 22.0642 8.36639 21.7659 7.94793C21.4676 7.52947 21.0512 7.23908 20.5861 7.12519C20.1211 7.01129 19.6355 7.08077 19.2103 7.32204C18.7851 7.56331 18.4461 7.96179 18.2497 8.45104C18.03 8.32013 17.7855 8.25075 17.5371 8.24877C17.2818 8.24922 17.0305 8.32024 16.8051 8.45563C16.5798 8.59103 16.3873 8.78666 16.2444 9.02544C16.1015 9.26421 16.0126 9.53886 15.9855 9.82536C15.9584 10.1119 15.9939 10.4015 16.0888 10.669C15.4241 10.8724 14.9323 11.551 14.9323 12.3647C14.9323 12.5976 14.974 12.8175 15.0469 13.021C14.8108 13.0928 14.593 13.2266 14.4114 13.4114C14.1268 13.1174 13.7553 12.9539 13.3695 12.9527C13.1226 12.9527 12.8913 13.0233 12.6829 13.1397C12.786 12.9045 12.8486 12.6435 12.8486 12.3647C12.8482 12.0766 12.7852 11.793 12.6653 11.5386C12.5453 11.2843 12.372 11.067 12.1604 10.9057C11.9489 10.7444 11.7056 10.6441 11.4517 10.6135C11.1979 10.5829 10.9413 10.6229 10.7043 10.7301C10.6492 10.4983 10.5527 10.2816 10.4206 10.0935C10.2885 9.90531 10.1237 9.74967 9.93634 9.6361C9.74897 9.52253 9.543 9.45344 9.33109 9.43309C9.11918 9.41273 8.90582 9.44154 8.70415 9.51774C8.50247 9.59394 8.31675 9.71592 8.1584 9.87616C8.00006 10.0364 7.87244 10.2315 7.78341 10.4495C7.69438 10.6675 7.64581 10.9038 7.6407 11.1438C7.6356 11.3838 7.67405 11.6224 7.75371 11.845C7.51757 11.9168 7.2998 12.0506 7.11815 12.2354C6.83356 11.9414 6.46204 11.7779 6.07626 11.7768C5.66177 11.7768 5.26426 11.9626 4.97117 12.2934C4.67808 12.6242 4.51343 13.0729 4.51343 13.5407C4.51343 13.7477 4.55094 13.9441 4.60928 14.1287H6.69306C6.90873 13.4455 7.48073 12.9527 8.16004 12.9527Z" fill="#FFAC33"/>
<path d="M2.42969 14.1284V15.3044C2.42969 15.6163 2.53946 15.9154 2.73485 16.136C2.93024 16.3565 3.19525 16.4804 3.47158 16.4804H30.5607C30.8371 16.4804 31.1021 16.3565 31.2975 16.136C31.4928 15.9154 31.6026 15.6163 31.6026 15.3044V14.1284H2.42969Z" fill="white"/>
</svg>
